<svg height="511pt" viewBox="0 0 511 511.90212" width="511pt" xmlns="http://www.w3.org/2000/svg"><path d="m265.367188 255.902344c0 5.050781-4.09375 9.144531-9.144532 9.144531-5.050781 0-9.144531-4.09375-9.144531-9.144531 0-5.050782 4.09375-9.144532 9.144531-9.144532 5.050782 0 9.144532 4.09375 9.144532 9.144532zm0 0"/><path d="m.449219 246.757812h137.382812c4.683594-61.925781 56.296875-109.78125 118.398438-109.78125 62.105469 0 113.714843 47.855469 118.402343 109.78125h137.359376c-4.9375-137.6875-117.992188-246.757812-255.769532-246.757812s-250.832031 109.070312-255.773437 246.757812zm132.152343-193.9375c17.773438-10.835937 36.898438-19.28125 56.878907-25.125 3.136719-.914062 6.519531-.089843 8.882812 2.167969 2.359375 2.257813 3.339844 5.605469 2.5625 8.777344-.773437 3.175781-3.179687 5.695313-6.316406 6.609375-18.429687 5.382812-36.066406 13.175781-52.453125 23.179688-1.429688.878906-3.074219 1.34375-4.753906 1.34375-4.101563.003906-7.707032-2.71875-8.816406-6.667969-1.113282-3.945313.542968-8.152344 4.042968-10.285157zm-34.605468 37.878907c3.628906 3.503906 3.734375 9.285156.238281 12.917969-11.195313 11.613281-21.085937 24.421874-29.484375 38.191406-1.6875 2.824218-4.757812 4.523437-8.046875 4.453125-3.285156-.070313-6.28125-1.898438-7.847656-4.789063-1.5625-2.894531-1.453125-6.402344.285156-9.191406 9.101563-14.90625 19.804687-28.769531 31.925781-41.34375 1.683594-1.746094 3.992188-2.75 6.417969-2.796875 2.421875-.042969 4.765625.875 6.511719 2.558594zm0 0"/><path d="m256.222656 191.902344c-35.347656 0-64 28.652344-64 64s28.652344 64 64 64 64-28.652344 64-64c-.039062-35.328125-28.671875-63.960938-64-64zm0 91.429687c-15.148437 0-27.429687-12.28125-27.429687-27.429687 0-15.148438 12.28125-27.429688 27.429687-27.429688 15.148438 0 27.429688 12.28125 27.429688 27.429688 0 15.148437-12.28125 27.429687-27.429688 27.429687zm0 0"/><path d="m256.222656 511.902344c137.742188-.175782 250.710938-109.207032 255.769532-246.855469h-137.378907c-4.683593 61.925781-56.296875 109.78125-118.398437 109.78125-62.105469 0-113.71875-47.855469-118.402344-109.78125h-137.363281c5.0625 137.648437 118.03125 246.679687 255.773437 246.855469zm131.65625-80.457032c22.324219-16.757812 41.253906-37.617187 55.773438-61.457031 2.652344-4.253906 8.238281-5.578125 12.519531-2.964843 4.28125 2.613281 5.65625 8.183593 3.085937 12.488281-15.71875 25.828125-36.21875 48.421875-60.40625 66.5625-2.613281 1.960937-6.074218 2.375-9.078124 1.09375-3.003907-1.285157-5.09375-4.070313-5.484376-7.316407-.390624-3.242187.976563-6.445312 3.589844-8.40625zm0 0"/><path d="m256.222656 155.332031c-55.542968 0-100.570312 45.027344-100.570312 100.570313 0 55.542968 45.027344 100.570312 100.570312 100.570312 55.542969 0 100.570313-45.027344 100.570313-100.570312-.066407-55.515625-45.054688-100.507813-100.570313-100.570313zm0 182.855469c-45.445312 0-82.285156-36.839844-82.285156-82.285156 0-45.445313 36.839844-82.285156 82.285156-82.285156 45.445313 0 82.285156 36.839843 82.285156 82.285156-.050781 45.425781-36.859374 82.234375-82.285156 82.285156zm0 0"/></svg>